<?xml version="1.0" encoding="UTF-8"?>
<svg xmlns="http://www.w3.org/2000/svg" style="display:none">

  <!-- Edit icon -->
  <symbol id="icon-edit" viewBox="0 0 24 24" fill="none" stroke="currentColor">
    <path stroke-linecap="round" stroke-linejoin="round" stroke-width="2"
      d="M11 5H6a2 2 0 00-2 2v12a2 2 0 002 2h12a2 2 0 002-2v-5m-4-4l5-5m-5 5L9 7"/>
  </symbol>

  <!-- Actiu/Inactiu -->
  <symbol id="icon-edit" viewBox="0 0 24 24" fill="none" stroke="currentColor">
    <path stroke-linecap="round" stroke-linejoin="round" stroke-width="2"
      d="M11 5H6a2 2 0 00-2 2v12a2 2 0 002 2h12a2 2 0 002-2v-5m-4-4l5-5m-5 5L9 7"/>
  </symbol>

</svg>
