<?xml version="1.0" encoding="UTF-8"?>
<svg xmlns="http://www.w3.org/2000/svg" style="display:none">

  <!-- Edit icon -->
  <symbol id="icon-edit" viewBox="0 0 24 24" fill="none" stroke="currentColor">
    <path stroke-linecap="round" stroke-linejoin="round" stroke-width="2"
      d="M11 5H6a2 2 0 00-2 2v12a2 2 0 002 2h12a2 2 0 002-2v-5m-4-4l5-5m-5 5L9 7"/>
  </symbol>

  <!-- Actiu/Inactiu -->
  <symbol id="icon-check" viewBox="0 0 24 24" fill="none" stroke="currentColor">
    <path stroke-linecap="round" stroke-linejoin="round" stroke-width="2"
      d="M5 13l4 4L19 7"/>
  </symbol>

  <symbol id="icon-x" viewBox="0 0 24 24" fill="none" stroke="currentColor">
    <path stroke-linecap="round" stroke-linejoin="round" stroke-width="2"
      d="M6 18L18 6M6 6l12 12"/>
  </symbol>

  <!-- Menu icons -->
  <symbol id="computer-desktop" viewBox="0 0 24 24" fill="none" stroke="currentColor">
    <path stroke-linecap="round" stroke-linejoin="round" stroke-width="2"
    d="M9 17.25v1.007a3 3 0 0 1-.879 2.122L7.5 21h9l-.621-.621A3 3 0 0 1 15 18.257V17.25m6-12V15a2.25 2.25 0 0 1-2.25 2.25H5.25A2.25 2.25 0 0 1 3 15V5.25m18 0A2.25 2.25 0 0 0 18.75 3H5.25A2.25 2.25 0 0 0 3 5.25m18 0V12a2.25 2.25 0 0 1-2.25 2.25H5.25A2.25 2.25 0 0 1 3 12V5.25"/>
  </symbol>

  <symbol id="centre-icone" viewBox="0 0 24 24" fill="none" stroke="currentColor">
    <path stroke-linecap="round" stroke-linejoin="round" stroke-width="2"
    d="M2.25 21h19.5m-18-18v18m10.5-18v18m6-13.5V21M6.75 6.75h.75m-.75 3h.75m-.75 3h.75m3-6h.75m-.75 3h.75m-.75 3h.75M6.75 21v-3.375c0-.621.504-1.125 1.125-1.125h2.25c.621 0 1.125.504 1.125 1.125V21M3 3h12m-.75 4.5H21m-3.75 3.75h.008v.008h-.008v-.008Zm0 3h.008v.008h-.008v-.008Zm0 3h.008v.008h-.008v-.008Z"/>
  </symbol>

  <symbol id="profesionals-icone" viewBox="0 0 24 24" fill="none" stroke="currentColor">
    <path stroke-linecap="round" stroke-linejoin="round" stroke-width="2"
    d="M18 18.72a9.094 9.094 0 0 0 3.741-.479 3 3 0 0 0-4.682-2.72m.94 3.198.001.031c0 .225-.012.447-.037.666A11.944 11.944 0 0 1 12 21c-2.17 0-4.207-.576-5.963-1.584A6.062 6.062 0 0 1 6 18.719m12 0a5.971 5.971 0 0 0-.941-3.197m0 0A5.995 5.995 0 0 0 12 12.75a5.995 5.995 0 0 0-5.058 2.772m0 0a3 3 0 0 0-4.681 2.72 8.986 8.986 0 0 0 3.74.477m.94-3.197a5.971 5.971 0 0 0-.94 3.197M15 6.75a3 3 0 1 1-6 0 3 3 0 0 1 6 0Zm6 3a2.25 2.25 0 1 1-4.5 0 2.25 2.25 0 0 1 4.5 0Zm-13.5 0a2.25 2.25 0 1 1-4.5 0 2.25 2.25 0 0 1 4.5 0Z"/>
  </symbol>

  <symbol id="tracking-icone" viewBox="0 0 24 24" fill="none" stroke="currentColor">
    <path stroke-linecap="round" stroke-linejoin="round" stroke-width="2"
    d="m20.25 7.5-.625 10.632a2.25 2.25 0 0 1-2.247 2.118H6.622a2.25 2.25 0 0 1-2.247-2.118L3.75 7.5M10 11.25h4M3.375 7.5h17.25c.621 0 1.125-.504 1.125-1.125v-1.5c0-.621-.504-1.125-1.125-1.125H3.375c-.621 0-1.125.504-1.125 1.125v1.5c0 .621.504 1.125 1.125 1.125Z"/>
  </symbol>

  <symbol id="training-icone" viewBox="0 0 24 24" fill="none" stroke="currentColor">
    <path stroke-linecap="round" stroke-linejoin="round" stroke-width="2"
    d="M4.26 10.147a60.438 60.438 0 0 0-.491 6.347A48.62 48.62 0 0 1 12 20.904a48.62 48.62 0 0 1 8.232-4.41 60.46 60.46 0 0 0-.491-6.347m-15.482 0a50.636 50.636 0 0 0-2.658-.813A59.906 59.906 0 0 1 12 3.493a59.903 59.903 0 0 1 10.399 5.84c-.896.248-1.783.52-2.658.814m-15.482 0A50.717 50.717 0 0 1 12 13.489a50.702 50.702 0 0 1 7.74-3.342M6.75 15a.75.75 0 1 0 0-1.5.75.75 0 0 0 0 1.5Zm0 0v-3.675A55.378 55.378 0 0 1 12 8.443m-7.007 11.55A5.981 5.981 0 0 0 6.75 15.75v-1.5"/>
  </symbol>

  <symbol id="manteniment-icone" viewBox="0 0 24 24" fill="none" stroke="currentColor">
    <path stroke-linecap="round" stroke-linejoin="round" stroke-width="2"
    d="M11.42 15.17 17.25 21A2.652 2.652 0 0 0 21 17.25l-5.877-5.877M11.42 15.17l2.496-3.03c.317-.384.74-.626 1.208-.766M11.42 15.17l-4.655 5.653a2.548 2.548 0 1 1-3.586-3.586l6.837-5.63m5.108-.233c.55-.164 1.163-.188 1.743-.14a4.5 4.5 0 0 0 4.486-6.336l-3.276 3.277a3.004 3.004 0 0 1-2.25-2.25l3.276-3.276a4.5 4.5 0 0 0-6.336 4.486c.091 1.076-.071 2.264-.904 2.95l-.102.085m-1.745 1.437L5.909 7.5H4.5L2.25 3.75l1.5-1.5L7.5 4.5v1.409l4.26 4.26m-1.745 1.437 1.745-1.437m6.615 8.206L15.75 15.75M4.867 19.125h.008v.008h-.008v-.008Z"/>
  </symbol>

  <symbol id="documentacio-icone" viewBox="0 0 24 24" fill="none" stroke="currentColor">
    <path stroke-linecap="round" stroke-linejoin="round" stroke-width="2"
    d="M19.5 14.25v-2.625a3.375 3.375 0 0 0-3.375-3.375h-1.5A1.125 1.125 0 0 1 13.5 7.125v-1.5a3.375 3.375 0 0 0-3.375-3.375H8.25m0 12.75h7.5m-7.5 3H12M10.5 2.25H5.625c-.621 0-1.125.504-1.125 1.125v17.25c0 .621.504 1.125 1.125 1.125h12.75c.621 0 1.125-.504 1.125-1.125V11.25a9 9 0 0 0-9-9Z"/>
  </symbol>

  <symbol id="human-resources-icone" viewBox="0 0 24 24" fill="none" stroke="currentColor">
    <path stroke-linecap="round" stroke-linejoin="round" stroke-width="2"
    d="M15.75 6a3.75 3.75 0 1 1-7.5 0 3.75 3.75 0 0 1 7.5 0ZM4.501 20.118a7.5 7.5 0 0 1 14.998 0A17.933 17.933 0 0 1 12 21.75c-2.676 0-5.216-.584-7.499-1.632Z" />
  </symbol>

  <symbol id="general-services-icone" viewBox="0 0 24 24" fill="none" stroke="currentColor">
    <path stroke-linecap="round" stroke-linejoin="round" stroke-width="2"
    d="M19.5 14.25v-2.625a3.375 3.375 0 0 0-3.375-3.375h-1.5A1.125 1.125 0 0 1 13.5 7.125v-1.5a3.375 3.375 0 0 0-3.375-3.375H8.25m2.25 0H5.625c-.621 0-1.125.504-1.125 1.125v17.25c0 .621.504 1.125 1.125 1.125h12.75c.621 0 1.125-.504 1.125-1.125V11.25a9 9 0 0 0-9-9Z" />
  </symbol>


  <!-- Show icones -->

  <symbol id="phone-icone" viewBox="0 0 24 24" fill="none" stroke="currentColor">
    <path stroke-linecap="round" stroke-linejoin="round" stroke-width="2"
    d="M2.25 6.75c0 8.284 6.716 15 15 15h2.25a2.25 2.25 0 0 0 2.25-2.25v-1.372c0-.516-.351-.966-.852-1.091l-4.423-1.106c-.44-.11-.902.055-1.173.417l-.97 1.293c-.282.376-.769.542-1.21.38a12.035 12.035 0 0 1-7.143-7.143c-.162-.441.004-.928.38-1.21l1.293-.97c.363-.271.527-.734.417-1.173L6.963 3.102a1.125 1.125 0 0 0-1.091-.852H4.5A2.25 2.25 0 0 0 2.25 4.5v2.25Z" />
  </symbol>

  <symbol id="email-icone" viewBox="0 0 24 24" fill="none" stroke="currentColor">
    <path stroke-linecap="round" stroke-linejoin="round" stroke-width="2"
    d="M21.75 6.75v10.5a2.25 2.25 0 0 1-2.25 2.25h-15a2.25 2.25 0 0 1-2.25-2.25V6.75m19.5 0A2.25 2.25 0 0 0 19.5 4.5h-15a2.25 2.25 0 0 0-2.25 2.25m19.5 0v.243a2.25 2.25 0 0 1-1.07 1.916l-7.5 4.615a2.25 2.25 0 0 1-2.36 0L3.32 8.91a2.25 2.25 0 0 1-1.07-1.916V6.75" />
  </symbol>



  


  <!-- Template 
  <symbol id="template-icone" viewBox="0 0 24 24" fill="none" stroke="currentColor">
    <path stroke-linecap="round" stroke-linejoin="round" stroke-width="2"
    d=""/>
  </symbol>
  -->


  


  

</svg>
